<svg width="187" height="178" viewBox="0 0 187 178" fill="none" xmlns="http://www.w3.org/2000/svg">
<g filter="url(#filter0_d_385_27)">
<path fill-rule="evenodd" clip-rule="evenodd" d="M170.743 88.4356C166.138 85.1624 160.692 82.19 154.738 79.8508C143.243 75.3345 132.512 74.2219 125.466 76.2099C121.252 80.1974 118.39 84.3834 117.405 88.2524C118.352 92.1773 121.239 96.4642 125.525 100.573C132.414 102.546 142.779 101.602 153.912 97.3997C160.223 95.018 165.97 91.8957 170.743 88.4356Z" fill="#FED381"/>
</g>
<path fill-rule="evenodd" clip-rule="evenodd" d="M149.195 88.3642C146.973 86.4453 144.345 84.7036 141.471 83.334C135.923 80.6899 130.74 80.0437 127.335 81.2156C125.296 83.5598 123.909 86.0197 123.429 88.2921C123.883 90.5961 125.274 93.1113 127.34 95.5212C130.666 96.6749 135.674 96.1135 141.056 93.6389C144.107 92.2362 146.886 90.3991 149.195 88.3642Z" fill="white"/>
<ellipse rx="7.71053" ry="7.31569" transform="matrix(0.00918611 -0.999958 0.99998 0.00638175 130.065 88.3788)" fill="white"/>
<path fill-rule="evenodd" clip-rule="evenodd" d="M108.861 72.3228C107.554 77.3996 106.797 83.1291 106.75 89.1966C106.705 95.1137 107.34 100.72 108.512 105.721L117.742 105.791C116.57 100.79 115.935 95.1844 115.98 89.2673C116.026 83.1998 116.783 77.4703 118.09 72.3935L108.861 72.3228Z" fill="#242E22"/>
<path fill-rule="evenodd" clip-rule="evenodd" d="M107.062 106.606L65.5757 106.288C65.5698 106.478 65.5661 106.667 65.5646 106.858C65.4767 118.337 73.6233 127.705 83.7604 127.783L117.926 128.044C118.972 128.052 119.998 127.961 120.998 127.778C115.417 122.392 110.657 115.151 107.062 106.606Z" fill="url(#paint0_linear_385_27)"/>
<path fill-rule="evenodd" clip-rule="evenodd" d="M84.8641 94.4202L102.03 94.5517C102.03 94.5516 102.03 94.5516 102.03 94.5516L84.8224 94.4199C84.8363 94.42 84.8502 94.4201 84.8641 94.4202ZM66.6707 74.0649L108.157 74.3825C111.882 65.8938 116.753 58.7266 122.415 53.4263C121.418 53.2283 120.394 53.1213 119.348 53.1133L85.1824 52.8517C75.0452 52.7741 66.7562 62.0166 66.6683 73.4954C66.6668 73.6858 66.6676 73.8757 66.6707 74.0649Z" fill="url(#paint1_linear_385_27)"/>
<path fill-rule="evenodd" clip-rule="evenodd" d="M67.137 110.39C74.326 112.527 82.5656 114.059 91.3796 114.744C98.1531 115.27 104.674 115.25 110.712 114.759C109.115 112.045 107.667 109.117 106.384 106.002L66.9263 106.22C66.9188 106.4 66.9134 106.581 66.9102 106.763C66.888 108.002 66.9665 109.215 67.137 110.39ZM93.0376 63.9714C100.432 63.4013 107.501 63.4617 113.951 64.0589C111.639 67.4419 109.555 71.2026 107.74 75.2751L68.2827 75.4933C68.2816 75.313 68.2827 75.132 68.2859 74.9505C68.3297 72.5067 68.7609 70.164 69.5117 67.9987C76.571 66.0373 84.5561 64.6253 93.0376 63.9714Z" fill="#421116"/>
<path fill-rule="evenodd" clip-rule="evenodd" d="M134.243 107.805C132.037 100.724 131.044 92.7063 131.59 84.2779C131.88 79.8062 132.584 75.4978 133.646 71.4249C122.267 66.66 103.597 64.136 82.7048 65.2508C57.4795 66.5967 36.1465 72.8667 27.2557 80.6681C24.1933 82.8809 22.3923 85.416 22.1496 88.1961C21.1361 99.8018 47.6625 111.282 81.398 113.837C103.355 115.5 122.954 112.972 134.243 107.805Z" fill="url(#paint2_linear_385_27)"/>
<path fill-rule="evenodd" clip-rule="evenodd" d="M66.1206 65.6917C62.4069 66.0977 58.8246 66.6589 55.4177 67.354C54.8294 73.7052 54.4892 80.4094 54.4362 87.3406C54.3732 95.5601 54.7188 103.467 55.4114 110.849C58.8237 111.618 62.4084 112.252 66.1225 112.73C65.3124 104.838 64.9024 96.3128 64.9705 87.4212C65.0284 79.8527 65.4286 72.5549 66.1206 65.6917Z" fill="url(#paint3_radial_385_27)"/>
<g filter="url(#filter1_d_385_27)">
<ellipse cx="41.4619" cy="89.0055" rx="12.7117" ry="11.2111" transform="rotate(-89.5613 41.4619 89.0055)" fill="#C4C4C4"/>
<g filter="url(#filter2_i_385_27)">
<ellipse cx="41.4618" cy="89.0055" rx="6.72974" ry="5.93527" transform="rotate(-89.5613 41.4618 89.0055)" fill="#6CCAD7"/>
</g>
</g>
<defs>
<filter id="filter0_d_385_27" x="117.405" y="75.2637" width="69.3386" height="43.2975" filterUnits="userSpaceOnUse" color-interpolation-filters="sRGB">
<feFlood flood-opacity="0" result="BackgroundImageFix"/>
<feColorMatrix in="SourceAlpha" type="matrix" values="0 0 0 0 0 0 0 0 0 0 0 0 0 0 0 0 0 0 127 0" result="hardAlpha"/>
<feOffset dx="16" dy="17"/>
<feComposite in2="hardAlpha" operator="out"/>
<feColorMatrix type="matrix" values="0 0 0 0 0 0 0 0 0 0 0 0 0 0 0 0 0 0 0.39 0"/>
<feBlend mode="normal" in2="BackgroundImageFix" result="effect1_dropShadow_385_27"/>
<feBlend mode="normal" in="SourceGraphic" in2="effect1_dropShadow_385_27" result="shape"/>
</filter>
<filter id="filter1_d_385_27" x="26.2507" y="76.2938" width="30.4224" height="33.4233" filterUnits="userSpaceOnUse" color-interpolation-filters="sRGB">
<feFlood flood-opacity="0" result="BackgroundImageFix"/>
<feColorMatrix in="SourceAlpha" type="matrix" values="0 0 0 0 0 0 0 0 0 0 0 0 0 0 0 0 0 0 127 0" result="hardAlpha"/>
<feOffset dy="4"/>
<feGaussianBlur stdDeviation="2"/>
<feComposite in2="hardAlpha" operator="out"/>
<feColorMatrix type="matrix" values="0 0 0 0 0 0 0 0 0 0 0 0 0 0 0 0 0 0 0.25 0"/>
<feBlend mode="normal" in2="BackgroundImageFix" result="effect1_dropShadow_385_27"/>
<feBlend mode="normal" in="SourceGraphic" in2="effect1_dropShadow_385_27" result="shape"/>
</filter>
<filter id="filter2_i_385_27" x="35.5265" y="82.2758" width="11.8707" height="17.4595" filterUnits="userSpaceOnUse" color-interpolation-filters="sRGB">
<feFlood flood-opacity="0" result="BackgroundImageFix"/>
<feBlend mode="normal" in="SourceGraphic" in2="BackgroundImageFix" result="shape"/>
<feColorMatrix in="SourceAlpha" type="matrix" values="0 0 0 0 0 0 0 0 0 0 0 0 0 0 0 0 0 0 127 0" result="hardAlpha"/>
<feOffset dy="4"/>
<feGaussianBlur stdDeviation="2"/>
<feComposite in2="hardAlpha" operator="arithmetic" k2="-1" k3="1"/>
<feColorMatrix type="matrix" values="0 0 0 0 0 0 0 0 0 0 0 0 0 0 0 0 0 0 0.25 0"/>
<feBlend mode="normal" in2="shape" result="effect1_innerShadow_385_27"/>
</filter>
<linearGradient id="paint0_linear_385_27" x1="93.2005" y1="127.855" x2="93.364" y2="106.501" gradientUnits="userSpaceOnUse">
<stop stop-color="#BC1C2B"/>
<stop offset="1" stop-color="#931420"/>
</linearGradient>
<linearGradient id="paint1_linear_385_27" x1="94.6225" y1="52.924" x2="106.157" y2="76.9627" gradientUnits="userSpaceOnUse">
<stop stop-color="#BC1B2A"/>
<stop offset="1" stop-color="#931420"/>
</linearGradient>
<linearGradient id="paint2_linear_385_27" x1="42.682" y1="105.173" x2="90.512" y2="65.9585" gradientUnits="userSpaceOnUse">
<stop stop-color="#DA3329"/>
<stop offset="0.5125" stop-color="#BA1E26"/>
<stop offset="1" stop-color="#A01C23"/>
</linearGradient>
<radialGradient id="paint3_radial_385_27" cx="0" cy="0" r="1" gradientUnits="userSpaceOnUse" gradientTransform="translate(53.0981 88.5082) rotate(-62.2094) scale(26.6886 25.3479)">
<stop stop-color="white"/>
<stop offset="0.408333" stop-color="white"/>
<stop offset="0.647916" stop-color="white"/>
<stop offset="1" stop-color="#E3E3E3"/>
</radialGradient>
</defs>
</svg>
